<?xml version="1.0" encoding="UTF-8" standalone="no"?>
<!-- Created with Inkscape (http://www.inkscape.org/) -->

<svg
   xmlns:dc="http://purl.org/dc/elements/1.1/"
   xmlns:cc="http://creativecommons.org/ns#"
   xmlns:rdf="http://www.w3.org/1999/02/22-rdf-syntax-ns#"
   xmlns:svg="http://www.w3.org/2000/svg"
   xmlns="http://www.w3.org/2000/svg"
   xmlns:sodipodi="http://sodipodi.sourceforge.net/DTD/sodipodi-0.dtd"
   xmlns:inkscape="http://www.inkscape.org/namespaces/inkscape"
   width="210mm"
   height="297mm"
   viewBox="0 0 210 297"
   version="1.1"
   id="svg8"
   inkscape:export-filename=""
   inkscape:export-xdpi="212.98705"
   inkscape:export-ydpi="212.98705"
   inkscape:version="0.92.3 (2405546, 2018-03-11)"
   sodipodi:docname="icon.svg">
  <defs
     id="defs2">
    <inkscape:perspective
       sodipodi:type="inkscape:persp3d"
       inkscape:vp_x="0.94494046 : 136.76742 : 1"
       inkscape:vp_y="0 : 982.97874 : 0"
       inkscape:vp_z="210.94494 : 136.76742 : 1"
       inkscape:persp3d-origin="105.94494 : 88.109967 : 1"
       id="perspective815" />
  </defs>
  <sodipodi:namedview
     id="base"
     pagecolor="#ffffff"
     bordercolor="#666666"
     borderopacity="1.0"
     inkscape:pageopacity="0.0"
     inkscape:pageshadow="2"
     inkscape:zoom="1"
     inkscape:cx="396.85039"
     inkscape:cy="688.51098"
     inkscape:document-units="mm"
     inkscape:current-layer="layer1"
     showgrid="false"
     inkscape:window-width="1920"
     inkscape:window-height="1163"
     inkscape:window-x="0"
     inkscape:window-y="0"
     inkscape:window-maximized="1" />
  <metadata
     id="metadata5">
    <rdf:RDF>
      <cc:Work
         rdf:about="">
        <dc:format>image/svg+xml</dc:format>
        <dc:type
           rdf:resource="http://purl.org/dc/dcmitype/StillImage" />
        <dc:title></dc:title>
      </cc:Work>
    </rdf:RDF>
  </metadata>
  <g
     inkscape:label="Layer 1"
     inkscape:groupmode="layer"
     id="layer1">
    <rect
       style="fill:#d5f6ff;fill-opacity:1;stroke:none;stroke-width:1.86405027;stroke-linecap:round;stroke-linejoin:miter;stroke-miterlimit:4;stroke-dasharray:none;stroke-dashoffset:0;stroke-opacity:1;paint-order:fill markers stroke"
       id="rect874"
       width="122.0863"
       height="122.2375"
       x="27.40328"
       y="38.880058" />
    <g
       id="g866"
       inkscape:export-xdpi="231.34784"
       inkscape:export-ydpi="231.34784"
       transform="matrix(1,0,0,0.98297874,-4.8077749,-14.069879)">
      <ellipse
         ry="28.631697"
         rx="29.671131"
         cy="103.3817"
         cx="96.194946"
         id="path831"
         style="fill:#c83737;fill-opacity:1;stroke:none;stroke-width:1.79999995;stroke-linecap:round;stroke-linejoin:round;stroke-miterlimit:4;stroke-dasharray:none;stroke-dashoffset:0;stroke-opacity:1" />
      <rect
         y="102.72023"
         x="96.761909"
         height="54.617558"
         width="52.72768"
         id="rect833"
         style="fill:#ffcc00;fill-opacity:1;stroke:none;stroke-width:1.79999995;stroke-linecap:round;stroke-linejoin:round;stroke-miterlimit:4;stroke-dasharray:none;stroke-dashoffset:0;stroke-opacity:1" />
      <path
         transform="rotate(40.474082,-2.9625408,134.27666)"
         inkscape:transform-center-y="4.3438284"
         inkscape:transform-center-x="-3.4624225"
         d="M 45.357142,93.64881 29.25467,81.722596 10.301402,88.226277 16.667968,69.226513 4.6257181,53.210632 24.662945,53.394346 36.173693,36.992306 42.190814,56.105612 61.347097,61.984475 45.028656,73.613433 Z"
         inkscape:randomized="0"
         inkscape:rounded="0"
         inkscape:flatsided="false"
         sodipodi:arg2="1.7242632"
         sodipodi:arg1="1.0959447"
         sodipodi:r2="15.087418"
         sodipodi:r1="30.174837"
         sodipodi:cy="66.8125"
         sodipodi:cx="31.56101"
         sodipodi:sides="5"
         id="path835"
         style="fill:#00ccff;fill-opacity:1;stroke:none;stroke-width:1.79999995;stroke-linecap:round;stroke-linejoin:round;stroke-miterlimit:4;stroke-dasharray:none;stroke-dashoffset:0;stroke-opacity:1"
         sodipodi:type="star" />
      <path
         d="m 121.94862,131.20569 c 0.54011,0.4643 -0.3594,0.95712 -0.7717,0.89769 -1.11731,-0.16105 -1.40019,-1.55527 -1.02368,-2.44109 0.67348,-1.58454 2.70777,-1.91775 4.11049,-1.14968 2.05854,1.12717 2.44919,3.87539 1.27567,5.77989 -1.56413,2.53838 -5.04832,2.98648 -7.44928,1.40165 -3.02138,-1.99434 -3.52678,-6.22373 -1.52766,-9.11867 2.42121,-3.50616 7.40058,-4.0688 10.78808,-1.65364 3.99204,2.84618 4.61191,8.57829 1.77963,12.45746 -3.26999,4.47866 -9.75659,5.15576 -14.12686,1.90563 -4.96578,-3.69301 -5.70011,-10.9353 -2.03162,-15.79626 4.1155,-5.45325 12.11432,-6.24483 17.46565,-2.15761 5.941,4.53759 6.78983,13.29356 2.2836,19.13505"
         sodipodi:t0="0"
         sodipodi:argument="-18.139486"
         sodipodi:radius="14.20557"
         sodipodi:revolution="3"
         sodipodi:expansion="1"
         sodipodi:cy="131.20569"
         sodipodi:cx="121.94862"
         id="path839"
         style="fill:none;fill-rule:evenodd;stroke:#000000;stroke-width:2.11666656;stroke-linecap:round;stroke-linejoin:miter;stroke-miterlimit:4;stroke-dasharray:none;paint-order:fill markers stroke"
         sodipodi:type="spiral" />
      <g
         inkscape:corner7="-0.17076035 : 0.12099971 : 0.25 : 1"
         inkscape:corner0="-0.093653234 : 0.13073134 : 0 : 1"
         inkscape:perspectiveID="#perspective815"
         style="fill:#00ccff;fill-opacity:1;stroke:none;stroke-width:8;stroke-linecap:round;stroke-linejoin:miter;stroke-miterlimit:4;stroke-dasharray:none;stroke-dashoffset:0;stroke-opacity:1;paint-order:fill markers stroke"
         id="g841"
         sodipodi:type="inkscape:box3d">
        <path
           points="121.60242,98.432884 141.95754,115.48828 141.95754,107.07244 121.60242,87.69568 "
           d="m 121.60242,87.69568 v 10.737204 l 20.35512,17.055396 v -8.41584 z"
           inkscape:box3dsidetype="6"
           style="fill:#353564;fill-rule:evenodd;stroke:none;stroke-linejoin:round"
           id="path843"
           sodipodi:type="inkscape:box3dside" />
        <path
           points="151.68879,102.0535 151.68879,111.07061 141.95754,115.48828 141.95754,107.07244 "
           d="m 141.95754,107.07244 9.73125,-5.01894 v 9.01711 l -9.73125,4.41767 z"
           inkscape:box3dsidetype="11"
           style="fill:#e9e9ff;fill-rule:evenodd;stroke:none;stroke-linejoin:round"
           id="path853"
           sodipodi:type="inkscape:box3dside" />
        <path
           points="132.37474,79.36187 151.68879,102.0535 141.95754,107.07244 121.60242,87.69568 "
           d="m 121.60242,87.69568 10.77232,-8.33381 19.31405,22.69163 -9.73125,5.01894 z"
           inkscape:box3dsidetype="5"
           style="fill:#4d4d9f;fill-rule:evenodd;stroke:none;stroke-linejoin:round"
           id="path845"
           sodipodi:type="inkscape:box3dside" />
        <path
           points="132.37474,91.097476 151.68879,111.07061 141.95754,115.48828 121.60242,98.432884 "
           d="m 121.60242,98.432884 10.77232,-7.335408 19.31405,19.973134 -9.73125,4.41767 z"
           inkscape:box3dsidetype="13"
           style="fill:#afafde;fill-rule:evenodd;stroke:none;stroke-linejoin:round"
           id="path851"
           sodipodi:type="inkscape:box3dside" />
        <path
           points="132.37474,91.097476 151.68879,111.07061 151.68879,102.0535 132.37474,79.36187 "
           d="m 132.37474,79.36187 v 11.735606 l 19.31405,19.973134 v -9.01711 z"
           inkscape:box3dsidetype="14"
           style="fill:#d7d7ff;fill-rule:evenodd;stroke:none;stroke-linejoin:round"
           id="path849"
           sodipodi:type="inkscape:box3dside" />
        <path
           points="132.37474,79.36187 132.37474,91.097476 121.60242,98.432884 121.60242,87.69568 "
           d="m 121.60242,87.69568 10.77232,-8.33381 v 11.735606 l -10.77232,7.335408 z"
           inkscape:box3dsidetype="3"
           style="fill:#8686bf;fill-rule:evenodd;stroke:none;stroke-linejoin:round"
           id="path847"
           sodipodi:type="inkscape:box3dside" />
      </g>
    </g>
  </g>
</svg>
